<?xml version="1.0" encoding="UTF-8" standalone="no" ?>
<svg xmlns="http://www.w3.org/2000/svg" width="97.048px" height="45.168px" viewBox="0 -1604.5 5362 2495.5" xmlns:xlink="http://www.w3.org/1999/xlink"><defs><path id="MJX-6-NCM-I-1D6FF" d="M452 664C452 679 444 689 428 693C377 706 339 712 315 712C244 712 201 672 201 606C201 567 220 511 259 438C156 412 76 321 51 220C46 199 43 178 43 159C43 121 52 87 71 58C101 12 145-11 202-11C244-11 282 8 317 47C372 110 400 190 400 285C400 346 380 402 339 453L332 462C267 546 235 602 235 630C235 636 236 641 239 645C249 663 265 672 288 671C305 671 326 663 351 648C382 629 401 620 408 620C430 620 452 638 452 664M111 131C111 188 125 243 154 297C185 357 225 395 274 410C296 372 311 333 320 294C323 279 324 262 324 245C324 217 321 191 315 166C290 68 252 19 203 19C146 19 111 66 111 131Z"/><path id="MJX-6-NCM-N-2062" d=""/><path id="MJX-6-NCM-I-1D462" d="M543 144C543 153 538 158 527 158C518 158 513 151 510 137C505 118 500 99 493 80C480 39 462 18 440 18C422 18 413 32 413 60C413 77 420 111 433 161L460 267C469 303 477 328 483 359L489 386C491 393 492 398 492 401C492 421 481 431 459 431C437 431 423 419 417 394L343 98C342 95 338 88 330 76C314 50 275 18 235 18C197 18 178 44 178 95C178 136 196 202 231 294C242 324 248 345 248 357C248 407 213 442 163 442C118 442 83 417 58 367C39 328 29 301 29 287C29 278 34 273 45 273C58 273 60 279 64 293C87 373 119 413 160 413C174 413 181 403 181 384C181 369 175 348 164 319C126 218 107 148 107 111C107 34 155-11 232-11C275-11 314 9 347 50C361 9 391-11 437-11C506-11 527 70 543 144Z"/><path id="MJX-6-NCM-N-47" d="M667 443L667 677C667 696 662 705 652 705C645 705 639 700 633 691L586 622C568 640 547 657 524 673C491 694 451 705 404 705C306 705 223 670 156 598C89 526 56 441 56 342C56 243 90 158 157 86C224 14 307-22 406-22C495-22 557 5 591 59C599 46 639 1 654 1C663 1 667 10 667 27L667 200C667 218 670 229 676 233C682 237 702 239 735 239L735 278L610 275C547 273 492 274 447 278L447 239L483 239C524 239 549 236 558 231C567 226 571 214 571 196L571 132C571 83 549 50 506 34C474 23 446 17 422 17C383 17 343 27 304 48C210 97 166 193 166 342C166 483 215 589 303 636C342 656 379 666 416 666C539 666 611 553 627 435C629 422 636 415 647 415C667 415 667 423 667 443Z"/><path id="MJX-6-NCM-N-57" d="M910 581C923 623 956 644 1009 644L1009 683C968 680 937 679 915 680L793 683L793 645C850 644 879 627 879 596C879 593 877 587 874 577L729 132L574 605C573 611 572 616 572 619C572 636 600 644 655 644L655 683C612 680 564 679 510 680L385 683L385 644C419 644 442 642 452 639C462 636 469 627 474 612L496 544L362 132L206 607C205 611 204 615 204 619C204 636 232 644 288 644L288 683C245 680 197 679 143 680L18 683L18 644C57 644 80 642 88 638C96 634 103 624 108 606L307 0C312-15 319-22 329-22C335-22 339-21 342-19C349-11 352-4 353 1L513 491L674 0C679-15 686-22 697-22C702-22 707-21 710-19C716-11 719-4 720 1Z"/><path id="MJX-6-NCM-N-44" d="M401 0C490 0 563 34 622 103C679 168 707 246 707 336C707 428 679 508 624 575C565 647 490 683 401 683L35 683L35 644L63 644C98 644 119 641 126 636C133 631 137 620 137 602L137 81C137 63 133 51 126 46C119 41 98 39 63 39L35 39L35 0M374 39L274 39C235 39 230 38 230 74L230 609C230 645 235 644 274 644L373 644C447 644 506 614 550 554C583 507 600 435 600 336C600 161 534 39 374 39Z"/><path id="MJX-6-NCM-I-1D461" d="M330 419C330 428 320 433 299 433L218 433C244 537 257 591 257 595C257 616 246 626 225 626C202 626 188 613 182 587L145 433L56 433C34 433 23 432 23 411C23 400 33 395 54 395L135 395C86 200 62 97 62 84C62 28 100-11 156-11C194-11 227 6 256 41C280 70 297 98 308 125C312 136 314 142 314 145C314 154 309 159 299 159C291 159 285 154 281 143C247 60 206 19 157 19C140 19 131 33 131 60C131 75 133 91 137 107L208 395L297 395C323 395 330 397 330 419Z"/><path id="MJX-6-NCM-I-1D454" d="M15-141C15-184 60-205 150-205C197-205 241-193 280-170C324-144 351-109 362-66L471 373C473 383 474 389 474 392C474 412 463 422 442 422C420 422 406 410 399 387C377 424 347 442 310 442C246 442 189 410 140 346C95 286 72 223 72 158C72 71 123-3 207-3C246-3 282 14 315 47L285-71C256-140 211-175 148-175C122-175 100-173 82-169C103-158 113-141 113-118C113-93 99-80 72-80C40-80 15-109 15-141M356 392C376 371 386 351 386 331C386 330 385 325 383 318L336 129C330 106 313 82 286 60C259 38 233 27 210 27C170 27 150 56 150 114C150 169 184 291 204 327C235 384 270 412 311 412C329 412 344 405 356 392Z"/><path id="MJX-6-NCM-N-2061" d=""/><path id="MJX-6-NCM-I-1D453" d="M552 633C552 677 509 705 462 705C400 705 357 665 334 586C329 568 318 517 302 433L237 433C215 433 204 432 204 411C204 400 214 395 235 395L295 395L222 8C211-49 201-91 192-119C180-156 163-175 141-175C126-175 114-171 103-164C135-159 151-140 151-108C151-82 138-69 111-69C77-69 53-99 53-133C53-177 94-205 141-205C166-205 189-195 208-174C240-141 265-94 283-31C294 8 304 46 311 84L369 395L451 395C474 395 484 396 484 419C484 428 474 433 454 433L377 433C383 474 411 625 420 644C430 665 444 675 462 675C477 675 490 671 501 664C470 657 454 639 454 608C454 582 467 569 494 569C528 569 552 599 552 633Z"/><path id="MJX-6-NCM-I-1D459" d="M173 632L49 119C46 105 44 93 44 84C44 31 83-11 136-11C185-11 220 41 241 145C241 154 236 159 225 159C217 159 211 152 208 138C188 59 165 19 138 19C121 19 113 33 113 60C113 75 115 91 119 107L258 679L258 683C255 690 249 694 242 694C210 694 136 685 124 684C109 682 102 674 102 659C102 650 111 645 130 645C147 645 173 645 173 632Z"/><path id="MJX-6-NCM-I-1D465" d="M527 373C527 419 482 442 432 442C389 442 355 419 329 373C308 419 273 442 222 442C173 442 133 419 101 374C74 335 60 306 60 287C60 278 65 273 75 273C84 273 90 278 92 287C111 345 153 413 220 413C253 413 269 392 269 351C269 330 251 252 216 118C199 51 169 18 126 18C112 18 99 21 88 26C114 36 127 54 127 80C127 106 114 119 87 119C54 119 29 91 29 58C29 12 76-11 125-11C167-11 201 12 228 58C247 12 283-11 335-11C383-11 423 12 455 57C482 96 496 125 496 144C496 153 491 158 481 158C472 158 467 153 464 144C447 87 402 18 337 18C304 18 287 38 287 79C287 92 292 120 303 165L337 300C356 375 387 413 431 413C445 413 458 410 469 405C442 396 429 378 429 351C429 325 443 312 470 312C502 312 527 341 527 373Z"/><path id="MJX-6-NCM-I-1D44E" d="M498 144C498 153 493 158 482 158C474 158 468 151 465 137C445 58 421 18 394 18C377 18 368 32 368 60C368 73 372 97 381 132L438 357C443 376 445 387 445 392C445 412 434 422 412 422C391 422 377 410 370 387C349 424 319 442 281 442C216 442 159 409 109 343C63 281 40 217 40 150C40 63 91-11 175-11C218-11 260 12 300 58C311 20 345-11 392-11C461-11 482 70 498 144M341 374C350 353 355 339 355 330C355 326 354 321 353 314L304 122C301 111 294 99 285 87C248 41 212 18 177 18C138 18 118 48 118 107C118 131 124 167 136 215C157 300 187 357 224 388C244 405 263 413 282 413C309 413 329 400 341 374Z"/><path id="MJX-6-NCM-I-1D45B" d="M537 137C514 58 481 18 440 18C427 18 420 28 420 47C420 61 426 84 438 115C478 224 498 296 498 333C498 403 451 442 381 442C322 442 271 416 230 363C222 407 187 442 136 442C80 442 58 390 44 345C34 313 29 294 29 287C29 278 34 273 45 273C50 273 53 274 56 276C61 285 64 292 65 299C83 375 106 413 133 413C151 413 160 399 160 371C160 358 155 331 144 290L87 63C84 50 78 24 78 19C78-1 89-11 111-11C130-11 144-1 151 19C153 24 159 49 170 92L191 181L221 295C232 318 249 341 270 365C299 397 335 413 378 413C411 413 427 391 427 348C427 310 406 234 363 120C356 102 353 87 353 74C353 25 390-11 438-11C482-11 517 14 542 64C561 104 571 131 571 144C571 153 566 158 555 158C552 158 537 149 537 137Z"/></defs><g stroke="#000000" fill="#000000" stroke-width="0" transform="scale(1,-1)"><g data-mml-node="math" data-latex="   \frac{\delta u_t^{\text{GWD}}}{\delta gfluxlaun}" data-semantic-structure="(31 (7 0 6 (5 (4 1 2) 3)) (30 8 29 (28 9 27 (26 10 25 (24 11 18 12 19 13 20 14 21 15 22 16 23 17)))))"><g data-mml-node="mfrac" data-latex="   \frac{\delta u_t^{\text{GWD}}}{\delta gfluxlaun}" data-semantic-type="fraction" data-semantic-role="division" data-semantic-annotation="depth:1" data-semantic-id="31" data-semantic-children="7,30" data-semantic-attributes="latex:   \frac{\delta u_t^{\text{GWD}}}{\delta gfluxlaun}" data-semantic-owns="7 30" aria-level="0" data-speech-node="true"><g data-mml-node="mrow" data-latex="\delta u_t^{\text{GWD}}" data-semantic-type="infixop" data-semantic-role="implicit" data-semantic-annotation="clearspeak:unit;depth:2" data-semantic-id="7" data-semantic-children="0,5" data-semantic-content="6" data-semantic-parent="31" data-semantic-attributes="latex:\delta u_t^{\text{GWD}}" data-semantic-owns="0 6 5" aria-level="1" data-speech-node="true" transform="translate(1216.4,736.8)"><g data-mml-node="mi" data-latex="\delta" data-semantic-type="identifier" data-semantic-role="greekletter" data-semantic-font="italic" data-semantic-annotation="clearspeak:simple;nemeth:number;depth:3" data-semantic-id="0" data-semantic-parent="7" data-semantic-attributes="latex:\delta" aria-level="2" data-speech-node="true"><use data-c="1D6FF" xlink:href="#MJX-6-NCM-I-1D6FF" xmlns:xlink="http://www.w3.org/1999/xlink"/></g><g data-mml-node="mo" data-semantic-type="operator" data-semantic-role="multiplication" data-semantic-annotation="depth:3" data-semantic-id="6" data-semantic-parent="7" data-semantic-added="true" data-semantic-operator="infixop,⁢" aria-level="2" data-speech-node="true" transform="translate(452,0)"><use data-c="2062" xlink:href="#MJX-6-NCM-N-2062" xmlns:xlink="http://www.w3.org/1999/xlink"/></g><g data-mml-node="msubsup" data-latex="u_t^{\text{GWD}}" data-semantic-type="subsup" data-semantic-role="latinletter" data-semantic-annotation="depth:3" data-semantic-id="5" data-semantic-children="1,2,3" data-semantic-parent="7" data-semantic-attributes="latex:u_t^{\text{GWD}}" data-semantic-collapsed="(5 (4 1 2) 3)" data-semantic-owns="1 2 3" aria-level="2" data-speech-node="true" transform="translate(452,0)"><g data-mml-node="mi" data-latex="u" data-semantic-type="identifier" data-semantic-role="latinletter" data-semantic-font="italic" data-semantic-annotation="clearspeak:simple;depth:5" data-semantic-id="1" data-semantic-parent="5" data-semantic-attributes="latex:u" aria-level="4" data-speech-node="true"><use data-c="1D462" xlink:href="#MJX-6-NCM-I-1D462" xmlns:xlink="http://www.w3.org/1999/xlink"/></g><g data-mml-node="TeXAtom" transform="translate(605,369.2) scale(0.707)" data-mjx-texclass="ORD" data-latex="{\text{GWD}}"><g data-mml-node="mtext" data-latex="\text{GWD}" data-semantic-type="text" data-semantic-role="unknown" data-semantic-font="normal" data-semantic-annotation="clearspeak:unit;depth:4" data-semantic-id="3" data-semantic-parent="5" data-semantic-attributes="latex:{\text{GWD}};texclass:ORD" aria-level="3" data-speech-node="true"><use data-c="47" xlink:href="#MJX-6-NCM-N-47" xmlns:xlink="http://www.w3.org/1999/xlink"/><use data-c="57" xlink:href="#MJX-6-NCM-N-57" xmlns:xlink="http://www.w3.org/1999/xlink" transform="translate(785,0)"/><use data-c="44" xlink:href="#MJX-6-NCM-N-44" xmlns:xlink="http://www.w3.org/1999/xlink" transform="translate(1813,0)"/></g></g><g data-mml-node="mi" transform="translate(605,-269) scale(0.707)" data-latex="t" data-semantic-type="identifier" data-semantic-role="latinletter" data-semantic-font="italic" data-semantic-annotation="clearspeak:simple;depth:5" data-semantic-id="2" data-semantic-parent="5" data-semantic-attributes="latex:t" aria-level="4" data-speech-node="true"><use data-c="1D461" xlink:href="#MJX-6-NCM-I-1D461" xmlns:xlink="http://www.w3.org/1999/xlink"/></g></g></g><g data-mml-node="mrow" data-latex="\delta gfluxlaun" data-semantic-type="infixop" data-semantic-role="implicit" data-semantic-annotation="clearspeak:unit;depth:2" data-semantic-id="30" data-semantic-children="8,28" data-semantic-content="29" data-semantic-parent="31" data-semantic-attributes="latex:\delta gfluxlaun" data-semantic-owns="8 29 28" aria-level="1" data-speech-node="true" transform="translate(220,-686)"><g data-mml-node="mi" data-latex="\delta" data-semantic-type="identifier" data-semantic-role="greekletter" data-semantic-font="italic" data-semantic-annotation="clearspeak:simple;depth:3" data-semantic-id="8" data-semantic-parent="30" data-semantic-attributes="latex:\delta" aria-level="2" data-speech-node="true"><use data-c="1D6FF" xlink:href="#MJX-6-NCM-I-1D6FF" xmlns:xlink="http://www.w3.org/1999/xlink"/></g><g data-mml-node="mo" data-semantic-type="operator" data-semantic-role="multiplication" data-semantic-annotation="depth:3" data-semantic-id="29" data-semantic-parent="30" data-semantic-added="true" data-semantic-operator="infixop,⁢" aria-level="2" data-speech-node="true" transform="translate(452,0)"><use data-c="2062" xlink:href="#MJX-6-NCM-N-2062" xmlns:xlink="http://www.w3.org/1999/xlink"/></g><g data-mml-node="mrow" data-semantic-added="true" data-semantic-type="appl" data-semantic-role="simple function" data-semantic-annotation="depth:3" data-semantic-id="28" data-semantic-children="9,26" data-semantic-content="27,9" data-semantic-parent="30" data-semantic-owns="9 27 26" aria-level="2" data-speech-node="true" transform="translate(452,0)"><g data-mml-node="mi" data-latex="g" data-semantic-type="identifier" data-semantic-role="simple function" data-semantic-font="italic" data-semantic-annotation="clearspeak:simple;nemeth:number;depth:4" data-semantic-id="9" data-semantic-parent="28" data-semantic-attributes="latex:g" data-semantic-operator="appl" aria-level="3" data-speech-node="true"><use data-c="1D454" xlink:href="#MJX-6-NCM-I-1D454" xmlns:xlink="http://www.w3.org/1999/xlink"/></g><g data-mml-node="mo" data-semantic-type="punctuation" data-semantic-role="application" data-semantic-annotation="nemeth:number;depth:4" data-semantic-id="27" data-semantic-parent="28" data-semantic-added="true" data-semantic-operator="appl" aria-level="3" data-speech-node="true" transform="translate(477,0)"><use data-c="2061" xlink:href="#MJX-6-NCM-N-2061" xmlns:xlink="http://www.w3.org/1999/xlink"/></g><g data-mml-node="mrow" data-semantic-added="true" data-semantic-type="appl" data-semantic-role="simple function" data-semantic-annotation="depth:4" data-semantic-id="26" data-semantic-children="10,24" data-semantic-content="25,10" data-semantic-parent="28" data-semantic-owns="10 25 24" aria-level="3" data-speech-node="true" transform="translate(477,0)"><g data-mml-node="mi" data-latex="f" data-semantic-type="identifier" data-semantic-role="simple function" data-semantic-font="italic" data-semantic-annotation="clearspeak:simple;nemeth:number;depth:5" data-semantic-id="10" data-semantic-parent="26" data-semantic-attributes="latex:f" data-semantic-operator="appl" aria-level="4" data-speech-node="true"><use data-c="1D453" xlink:href="#MJX-6-NCM-I-1D453" xmlns:xlink="http://www.w3.org/1999/xlink"/></g><g data-mml-node="mo" data-semantic-type="punctuation" data-semantic-role="application" data-semantic-annotation="nemeth:number;depth:5" data-semantic-id="25" data-semantic-parent="26" data-semantic-added="true" data-semantic-operator="appl" aria-level="4" data-speech-node="true" transform="translate(552,0)"><use data-c="2061" xlink:href="#MJX-6-NCM-N-2061" xmlns:xlink="http://www.w3.org/1999/xlink"/></g><g data-mml-node="mrow" data-semantic-added="true" data-semantic-type="infixop" data-semantic-role="implicit" data-semantic-annotation="clearspeak:unit;depth:5" data-semantic-id="24" data-semantic-children="11,12,13,14,15,16,17" data-semantic-content="18,19,20,21,22,23" data-semantic-parent="26" data-semantic-owns="11 18 12 19 13 20 14 21 15 22 16 23 17" aria-level="4" data-speech-node="true" transform="translate(552,0)"><g data-mml-node="mi" data-latex="l" data-semantic-type="identifier" data-semantic-role="latinletter" data-semantic-font="italic" data-semantic-annotation="clearspeak:simple;nemeth:number;depth:6" data-semantic-id="11" data-semantic-parent="24" data-semantic-attributes="latex:l" aria-level="5" data-speech-node="true"><use data-c="1D459" xlink:href="#MJX-6-NCM-I-1D459" xmlns:xlink="http://www.w3.org/1999/xlink"/></g><g data-mml-node="mo" data-semantic-type="operator" data-semantic-role="multiplication" data-semantic-annotation="depth:6" data-semantic-id="18" data-semantic-parent="24" data-semantic-added="true" data-semantic-operator="infixop,⁢" aria-level="5" data-speech-node="true" transform="translate(298,0)"><use data-c="2062" xlink:href="#MJX-6-NCM-N-2062" xmlns:xlink="http://www.w3.org/1999/xlink"/></g><g data-mml-node="mi" data-latex="u" data-semantic-type="identifier" data-semantic-role="latinletter" data-semantic-font="italic" data-semantic-annotation="clearspeak:simple;depth:6" data-semantic-id="12" data-semantic-parent="24" data-semantic-attributes="latex:u" aria-level="5" data-speech-node="true" transform="translate(298,0)"><use data-c="1D462" xlink:href="#MJX-6-NCM-I-1D462" xmlns:xlink="http://www.w3.org/1999/xlink"/></g><g data-mml-node="mo" data-semantic-type="operator" data-semantic-role="multiplication" data-semantic-annotation="depth:6" data-semantic-id="19" data-semantic-parent="24" data-semantic-added="true" data-semantic-operator="infixop,⁢" aria-level="5" data-speech-node="true" transform="translate(870,0)"><use data-c="2062" xlink:href="#MJX-6-NCM-N-2062" xmlns:xlink="http://www.w3.org/1999/xlink"/></g><g data-mml-node="mi" data-latex="x" data-semantic-type="identifier" data-semantic-role="latinletter" data-semantic-font="italic" data-semantic-annotation="clearspeak:simple;depth:6" data-semantic-id="13" data-semantic-parent="24" data-semantic-attributes="latex:x" aria-level="5" data-speech-node="true" transform="translate(870,0)"><use data-c="1D465" xlink:href="#MJX-6-NCM-I-1D465" xmlns:xlink="http://www.w3.org/1999/xlink"/></g><g data-mml-node="mo" data-semantic-type="operator" data-semantic-role="multiplication" data-semantic-annotation="depth:6" data-semantic-id="20" data-semantic-parent="24" data-semantic-added="true" data-semantic-operator="infixop,⁢" aria-level="5" data-speech-node="true" transform="translate(1442,0)"><use data-c="2062" xlink:href="#MJX-6-NCM-N-2062" xmlns:xlink="http://www.w3.org/1999/xlink"/></g><g data-mml-node="mi" data-latex="l" data-semantic-type="identifier" data-semantic-role="latinletter" data-semantic-font="italic" data-semantic-annotation="clearspeak:simple;depth:6" data-semantic-id="14" data-semantic-parent="24" data-semantic-attributes="latex:l" aria-level="5" data-speech-node="true" transform="translate(1442,0)"><use data-c="1D459" xlink:href="#MJX-6-NCM-I-1D459" xmlns:xlink="http://www.w3.org/1999/xlink"/></g><g data-mml-node="mo" data-semantic-type="operator" data-semantic-role="multiplication" data-semantic-annotation="depth:6" data-semantic-id="21" data-semantic-parent="24" data-semantic-added="true" data-semantic-operator="infixop,⁢" aria-level="5" data-speech-node="true" transform="translate(1740,0)"><use data-c="2062" xlink:href="#MJX-6-NCM-N-2062" xmlns:xlink="http://www.w3.org/1999/xlink"/></g><g data-mml-node="mi" data-latex="a" data-semantic-type="identifier" data-semantic-role="latinletter" data-semantic-font="italic" data-semantic-annotation="clearspeak:simple;depth:6" data-semantic-id="15" data-semantic-parent="24" data-semantic-attributes="latex:a" aria-level="5" data-speech-node="true" transform="translate(1740,0)"><use data-c="1D44E" xlink:href="#MJX-6-NCM-I-1D44E" xmlns:xlink="http://www.w3.org/1999/xlink"/></g><g data-mml-node="mo" data-semantic-type="operator" data-semantic-role="multiplication" data-semantic-annotation="depth:6" data-semantic-id="22" data-semantic-parent="24" data-semantic-added="true" data-semantic-operator="infixop,⁢" aria-level="5" data-speech-node="true" transform="translate(2269,0)"><use data-c="2062" xlink:href="#MJX-6-NCM-N-2062" xmlns:xlink="http://www.w3.org/1999/xlink"/></g><g data-mml-node="mi" data-latex="u" data-semantic-type="identifier" data-semantic-role="latinletter" data-semantic-font="italic" data-semantic-annotation="clearspeak:simple;depth:6" data-semantic-id="16" data-semantic-parent="24" data-semantic-attributes="latex:u" aria-level="5" data-speech-node="true" transform="translate(2269,0)"><use data-c="1D462" xlink:href="#MJX-6-NCM-I-1D462" xmlns:xlink="http://www.w3.org/1999/xlink"/></g><g data-mml-node="mo" data-semantic-type="operator" data-semantic-role="multiplication" data-semantic-annotation="depth:6" data-semantic-id="23" data-semantic-parent="24" data-semantic-added="true" data-semantic-operator="infixop,⁢" aria-level="5" data-speech-node="true" transform="translate(2841,0)"><use data-c="2062" xlink:href="#MJX-6-NCM-N-2062" xmlns:xlink="http://www.w3.org/1999/xlink"/></g><g data-mml-node="mi" data-latex="n" data-semantic-type="identifier" data-semantic-role="latinletter" data-semantic-font="italic" data-semantic-annotation="clearspeak:simple;depth:6" data-semantic-id="17" data-semantic-parent="24" data-semantic-attributes="latex:n" aria-level="5" data-speech-node="true" transform="translate(2841,0)"><use data-c="1D45B" xlink:href="#MJX-6-NCM-I-1D45B" xmlns:xlink="http://www.w3.org/1999/xlink"/></g></g></g></g></g><rect width="5122" height="60" x="120" y="220"/></g></g></g></svg>